<?xml version="1.0" encoding="UTF-8" standalone="no"?>
<svg id="svgmap" xmlns="http://www.w3.org/2000/svg" xmlns:xlink="http://www.w3.org/1999/xlink" version="1.1">
	<style type="text/css">
	/* <![CDATA[ */
		#svgmap {
			background: #FFFAF0;
			width: 100%;
			height: 100%;
		}
		
		path {
			fill: none;
			stroke-linecap: round;
			stroke-linejoin: round;
		}
		
		.stripe {
			stroke: #FFFFFF;
			stroke-width: 5;
		}

		.dot {
			stroke: #EEE;
			stroke-width: 5;
			stroke-dasharray: 25, 25;
			stroke-linecap: butt;
			marker-mid: url("#marker_arrow");
		}

		.pathbg {
			stroke-width: 9;
		}

		.path1 {
			stroke: #29F;
		}
		
		.path2 {
			stroke: #666;
		}


		.trail path {
			stroke: #F00;
			stroke-width: 3;
			marker-end: url("#marker_arrow");
		}
		/* ]]> */
	</style>
	<defs>
		<marker id="marker_circle" markerWidth="5" markerHeight="5" refx="10" refy="10" viewBox="0 0 20 20">
			<circle cx="10" cy="10" r="5" class="marker-circle" />
		</marker>
		<marker id="marker_point" markerWidth="7" markerHeight="7" refx="10" refy="10" viewBox="0 0 20 20">
			<circle cx="10" cy="10" r="5" class="marker-point" />
		</marker>
		<marker id="marker_arrow" markerWidth="7" markerHeight="7" refx="3" refy="3" orient="auto" markerUnits="strokeWidth" viewBox="0 0 20 12">
			<path d="M3,3 L0,6 L9,3 L0,0z" class="marker-arrow" />
		</marker>
	</defs>
	<g id="viewport">
		<g class="pathbg path1">
			<path id="path01" d="M 197 350 L 334 318 L 371 305 L 558 262 L 582 254 L 792 217 L 1006 167 " />
			<use xlink:href="#path01" class="stripe" id="path01_stripe"/>
			<use xlink:href="#path01" class="dot" id="path01_dot"/>
		</g>
		<g class="pathbg path2">
			<path id="path02" d="M 538 109 L 543 138 L 545 189 L 554 227 L 558 262 L 597 434" />
			<use xlink:href="#path02" class="stripe" id="path02_stripe"/>
			<use xlink:href="#path02" class="dot" id="path02_dot"/>
		</g>

		<g class="trail">
			<path d="M 197 350 L 334 318 L 371 305 " />
		</g>

		<g id="Reference">
			<text transform="matrix(1 0 0 1 463 263.5601)">宜园10号楼</text>
			<text transform="matrix(1 0 0 1 360 277.5601)">宜园9号楼</text>
			<text transform="matrix(1 0 0 1 495.75 188.0601)">宜园</text>
			<text transform="matrix(1 0 0 1 492.5 336.5601)">后勤集团</text>
			<text transform="matrix(1 0 0 1 572 177.5601)">
				<tspan x="0" y="0">样</tspan>
				<tspan x="0" y="14.4">子</tspan>
				<tspan x="0" y="28.8">很</tspan>
				<tspan x="0" y="43.2">老</tspan>
				<tspan x="0" y="57.6">的</tspan>
				<tspan x="0" y="72">楼</tspan>
			</text>
			<text transform="matrix(1 0 0 1 660.75 217.0601)">交大附小</text>
			<text transform="matrix(1 0 0 1 876.25 217.0601)">16号公寓</text>
			<text transform="matrix(1 0 0 1 826.25 177.5601)">一片工地</text>
		</g>
	</g>
</svg>